<svg width="18" height="18" viewBox="0 0 18 18" fill="none" xmlns="http://www.w3.org/2000/svg">
<path d="M16 18H2C1.46957 18 0.960859 17.7893 0.585786 17.4142C0.210714 17.0391 0 16.5304 0 16V2C0 1.46957 0.210714 0.960859 0.585786 0.585786C0.960859 0.210714 1.46957 0 2 0H16C16.5304 0 17.0391 0.210714 17.4142 0.585786C17.7893 0.960859 18 1.46957 18 2V16C18 16.5304 17.7893 17.0391 17.4142 17.4142C17.0391 17.7893 16.5304 18 16 18ZM2 2V16H16V2H2ZM15 14H3L6 10L7 11L10 7L15 14ZM5.5 8C5.10218 8 4.72064 7.84196 4.43934 7.56066C4.15804 7.27936 4 6.89782 4 6.5C4 6.10218 4.15804 5.72064 4.43934 5.43934C4.72064 5.15804 5.10218 5 5.5 5C5.89782 5 6.27936 5.15804 6.56066 5.43934C6.84196 5.72064 7 6.10218 7 6.5C7 6.89782 6.84196 7.27936 6.56066 7.56066C6.27936 7.84196 5.89782 8 5.5 8Z" fill="#A6A6A6"/>
</svg>
