<svg width="24" height="25" viewBox="0 0 24 25" fill="none" xmlns="http://www.w3.org/2000/svg">
<path fill-rule="evenodd" clip-rule="evenodd" d="M12 14.8281C13.1046 14.8281 14 13.9327 14 12.8281C14 11.7236 13.1046 10.8281 12 10.8281C10.8954 10.8281 10 11.7236 10 12.8281C10 13.9327 10.8954 14.8281 12 14.8281ZM16 12.8281C16 15.0373 14.2091 16.8281 12 16.8281C9.79086 16.8281 8 15.0373 8 12.8281C8 10.619 9.79086 8.82812 12 8.82812C14.2091 8.82812 16 10.619 16 12.8281Z" fill="#443F5F"/>
<path fill-rule="evenodd" clip-rule="evenodd" d="M17 6.82812C16.2425 6.82812 15.5499 6.40012 15.2111 5.72255L15.0403 5.38091C14.8709 5.04213 14.5247 4.82812 14.1459 4.82812H9.8541C9.47533 4.82812 9.12907 5.04213 8.95967 5.38091L8.78885 5.72255C8.45007 6.40012 7.75754 6.82812 7 6.82812H5C4.44772 6.82812 4 7.27584 4 7.82812V17.8281C4 18.3804 4.44772 18.8281 5 18.8281H19C19.5523 18.8281 20 18.3804 20 17.8281V7.82812C20 7.27584 19.5523 6.82812 19 6.82812H17ZM17 4.82812L16.8292 4.48648C16.321 3.47013 15.2822 2.82812 14.1459 2.82812H9.8541C8.71779 2.82812 7.679 3.47013 7.17082 4.48648L7 4.82812H5C3.34315 4.82812 2 6.17127 2 7.82812V17.8281C2 19.485 3.34315 20.8281 5 20.8281H19C20.6569 20.8281 22 19.485 22 17.8281V7.82812C22 6.17127 20.6569 4.82812 19 4.82812H17Z" fill="#443F5F"/>
<path d="M18.5 9.32812C18.5 9.88041 18.0523 10.3281 17.5 10.3281C16.9477 10.3281 16.5 9.88041 16.5 9.32812C16.5 8.77584 16.9477 8.32812 17.5 8.32812C18.0523 8.32812 18.5 8.77584 18.5 9.32812Z" fill="#443F5F"/>
</svg>
