<svg width="20" height="21" viewBox="0 0 20 21" fill="none" xmlns="http://www.w3.org/2000/svg">
<path d="M5.5003 5.75V5.2265C5.5003 2.6255 7.50428 0.5 10.0002 0.5C12.4962 0.5 14.5002 2.6255 14.5002 5.2265V5.7515H17.5722C17.758 5.75168 17.9371 5.82083 18.0748 5.94553C18.2125 6.07024 18.2991 6.24163 18.3177 6.4265L19.6676 19.9265C19.6781 20.0307 19.6666 20.136 19.634 20.2355C19.6013 20.335 19.5481 20.4266 19.4779 20.5043C19.4076 20.5821 19.3219 20.6442 19.2262 20.6868C19.1305 20.7293 19.0269 20.7514 18.9221 20.7515H1.07835C0.9736 20.7514 0.87003 20.7293 0.774316 20.6868C0.678603 20.6442 0.592868 20.5821 0.522636 20.5043C0.452404 20.4266 0.399232 20.335 0.366547 20.2355C0.333861 20.136 0.322386 20.0307 0.332861 19.9265L1.68285 6.4265C1.70143 6.24163 1.78796 6.07024 1.92569 5.94553C2.06342 5.82083 2.24254 5.75168 2.42834 5.7515H5.5003V5.75ZM7.00028 5.75H13.0002V5.2265C13.0002 3.4355 11.6472 2 10.0002 2C8.35327 2 7.00028 3.4355 7.00028 5.2265V5.7515V5.75ZM5.5003 7.25H3.10783L1.90784 19.25H18.0927L16.8912 7.25H14.5002V9.5C14.5002 9.69891 14.4212 9.88968 14.2805 10.0303C14.1399 10.171 13.9491 10.25 13.7502 10.25C13.5513 10.25 13.3605 10.171 13.2199 10.0303C13.0792 9.88968 13.0002 9.69891 13.0002 9.5V7.25H7.00028V9.5C7.00028 9.69891 6.92127 9.88968 6.78062 10.0303C6.63997 10.171 6.4492 10.25 6.25029 10.25C6.05138 10.25 5.86062 10.171 5.71997 10.0303C5.57932 9.88968 5.5003 9.69891 5.5003 9.5V7.25Z" fill="white"/>
</svg>
