<svg width="16" height="16" viewBox="0 0 16 16" fill="none" xmlns="http://www.w3.org/2000/svg">
<path d="M6.66699 3.55566H10.667V4.44455H6.66699V3.55566Z" fill="white"/>
<path d="M6.66699 5.33301H10.667V6.2219H6.66699V5.33301Z" fill="white"/>
<path d="M6.66699 7.11133H10.667V8.00022H6.66699V7.11133Z" fill="white"/>
<path d="M6.66699 8.88867H10.667V9.77756H6.66699V8.88867Z" fill="white"/>
<path d="M6.66699 10.667H10.667V11.5559H6.66699V10.667Z" fill="white"/>
<path d="M4.88867 3.55566H5.77756V4.44455H4.88867V3.55566Z" fill="white"/>
<path d="M4.88867 5.33301H5.77756V6.2219H4.88867V5.33301Z" fill="white"/>
<path d="M4.88867 7.11133H5.77756V8.00022H4.88867V7.11133Z" fill="white"/>
<path d="M4.88867 8.88867H5.77756V9.77756H4.88867V8.88867Z" fill="white"/>
<path d="M4.88867 10.667H5.77756V11.5559H4.88867V10.667Z" fill="white"/>
<path d="M12.4448 0.888672H3.55588C3.32013 0.888672 3.09404 0.982322 2.92734 1.14902C2.76064 1.31572 2.66699 1.54181 2.66699 1.77756V14.222C2.66699 14.4578 2.76064 14.6838 2.92734 14.8505C3.09404 15.0172 3.32013 15.1109 3.55588 15.1109H12.4448C12.6805 15.1109 12.9066 15.0172 13.0733 14.8505C13.24 14.6838 13.3337 14.4578 13.3337 14.222V1.77756C13.3337 1.54181 13.24 1.31572 13.0733 1.14902C12.9066 0.982322 12.6805 0.888672 12.4448 0.888672ZM12.4448 14.222H3.55588V1.77756H12.4448V14.222Z" fill="white"/>
</svg>
