<svg width="24" height="24" viewBox="0 0 24 24" fill="none" xmlns="http://www.w3.org/2000/svg">
<path d="M20.7768 15.3664C21.0006 14.2082 21.125 13.016 21.125 11.8163C21.125 10.7182 21.0312 9.63773 20.8588 8.58906C21.3916 8.25797 21.75 7.67211 21.75 7C21.75 5.98566 20.9391 5.16184 19.9323 5.13078C19.5489 4.1125 19.0837 3.15266 18.5252 2.28625C18.4102 2.10773 18.2124 2 18 2H6.75C6.53758 2 6.33984 2.10773 6.2248 2.28625C5.66633 3.1527 5.20109 4.1125 4.8177 5.13078C3.81086 5.16184 3 5.98566 3 7C3 7.67211 3.35844 8.25797 3.89117 8.58906C3.71883 9.63773 3.625 10.7182 3.625 11.8163C3.625 13.016 3.74938 14.2081 3.9732 15.3664C3.39613 15.6864 3 16.2946 3 17C3 18.0339 3.84105 18.875 4.875 18.875H5.01461C5.4382 19.9067 5.94816 20.8736 6.55039 21.7336C6.66758 21.9005 6.85863 22 7.06246 22H17.6875C17.8913 22 18.0823 21.9005 18.1995 21.7336C18.8018 20.8736 19.3118 19.9067 19.7353 18.875H19.875C20.9089 18.875 21.75 18.0339 21.75 17C21.75 16.2946 21.3539 15.6864 20.7768 15.3664ZM4.875 11.8163C4.875 10.8242 4.96203 9.83742 5.11852 8.875H7.5616C7.44832 9.83527 7.375 10.8155 7.375 11.8163C7.375 12.9323 7.45816 14.0429 7.61 15.125H5.19496C4.98875 14.047 4.875 12.9354 4.875 11.8163ZM8.625 11.8163C8.625 10.8234 8.69289 9.83699 8.81457 8.875H11.75V15.125H8.87387C8.71363 14.0475 8.625 12.9363 8.625 11.8163ZM13 8.875H15.9354C16.0571 9.83699 16.125 10.8234 16.125 11.8163C16.125 12.9363 16.0363 14.0475 15.8761 15.125H13V8.875ZM17.1884 8.875H19.6315C19.788 9.83742 19.875 10.8241 19.875 11.8163C19.875 12.9354 19.7613 14.047 19.555 15.125H17.14C17.2919 14.0429 17.375 12.9323 17.375 11.8163C17.375 10.8155 17.3017 9.83527 17.1884 8.875ZM17.6536 3.25C18.0028 3.82684 18.2984 4.46457 18.5684 5.125H16.4289C16.237 4.47438 16.0269 3.84055 15.7772 3.25H17.6536ZM14.4034 3.25C14.6728 3.82805 14.9012 4.46539 15.1102 5.125H13V3.25H14.4034ZM11.75 3.25V5.125H9.63984C9.84875 4.46539 10.0771 3.82805 10.3466 3.25H11.75ZM7.09637 3.25H8.97273C8.72309 3.84055 8.51297 4.47438 8.32102 5.125H6.18156C6.4516 4.46457 6.74719 3.82684 7.09637 3.25ZM4.875 6.375H19.875C20.2195 6.375 20.5 6.65547 20.5 7C20.5 7.34453 20.2195 7.625 19.875 7.625H4.875C4.53047 7.625 4.25 7.34453 4.25 7C4.25 6.65547 4.53047 6.375 4.875 6.375ZM7.39301 20.75C7.0091 20.1698 6.67098 19.5381 6.37008 18.875H8.4616C8.67445 19.5298 8.91281 20.16 9.18242 20.75H7.39301ZM10.5755 20.75C10.2795 20.1688 10.0183 19.5373 9.78566 18.875H11.75V20.75H10.5755ZM13 20.75V18.875H14.9643C14.7317 19.5373 14.4705 20.1688 14.1745 20.75H13ZM17.357 20.75H15.5676C15.8372 20.16 16.0755 19.5298 16.2884 18.875H18.3799C18.079 19.5381 17.7409 20.1698 17.357 20.75ZM19.875 17.625H4.875C4.53047 17.625 4.25 17.3445 4.25 17C4.25 16.6555 4.53047 16.375 4.875 16.375H19.875C20.2195 16.375 20.5 16.6555 20.5 17C20.5 17.3445 20.2195 17.625 19.875 17.625Z" fill="white"/>
</svg>
