<svg width="16" height="16" viewBox="0 0 16 16" fill="none" xmlns="http://www.w3.org/2000/svg">
<path d="M9.33366 5.33366H3.11144C2.99356 5.33366 2.88052 5.28683 2.79717 5.20348C2.71382 5.12013 2.66699 5.00709 2.66699 4.88921V3.11144C2.66699 2.99356 2.71382 2.88052 2.79717 2.79717C2.88052 2.71382 2.99356 2.66699 3.11144 2.66699H9.33366C9.45153 2.66699 9.56458 2.71382 9.64793 2.79717C9.73128 2.88052 9.7781 2.99356 9.7781 3.11144V4.88921C9.7781 5.00709 9.73128 5.12013 9.64793 5.20348C9.56458 5.28683 9.45153 5.33366 9.33366 5.33366ZM3.55588 4.44477H8.88921V3.52921H3.55588V4.44477Z" fill="#A9ADB2"/>
<path d="M9.33366 6.25781H3.11144C2.99356 6.25781 2.88052 6.30464 2.79717 6.38799C2.71382 6.47134 2.66699 6.58438 2.66699 6.70226V8.44448C2.66699 8.56235 2.71382 8.6754 2.79717 8.75875C2.88052 8.8421 2.99356 8.88892 3.11144 8.88892H8.16033L9.7781 7.24448V6.70226C9.7781 6.58438 9.73128 6.47134 9.64793 6.38799C9.56458 6.30464 9.45153 6.25781 9.33366 6.25781ZM8.88921 8.00004H3.55588V7.11115H8.88921V8.00004Z" fill="#A9ADB2"/>
<path d="M4.91534 14.0042V13.9776L5.05756 13.3598H1.77756V1.77756H10.6664V6.33312L11.5553 5.49312V1.33312C11.5553 1.21524 11.5085 1.1022 11.4252 1.01885C11.3418 0.935497 11.2288 0.888672 11.1109 0.888672H1.33312C1.21524 0.888672 1.1022 0.935497 1.01885 1.01885C0.935497 1.1022 0.888672 1.21524 0.888672 1.33312V13.7776C0.888672 13.8954 0.935497 14.0085 1.01885 14.0918C1.1022 14.1752 1.21524 14.222 1.33312 14.222H4.88867C4.89233 14.1489 4.90125 14.0761 4.91534 14.0042Z" fill="#A9ADB2"/>
<path d="M9.77733 8.51953L9.43066 8.87064C9.51667 8.85291 9.5955 8.8101 9.6572 8.74761C9.71889 8.68512 9.7607 8.60576 9.77733 8.51953Z" fill="#A9ADB2"/>
<path d="M2.66699 11.9729C2.66699 12.0908 2.71382 12.2038 2.79717 12.2872C2.88052 12.3705 2.99356 12.4173 3.11144 12.4173H5.26255L5.39588 11.8396L5.45366 11.5951V11.5729H3.55588V10.6662H6.37366L7.26255 9.77734H3.11144C2.99356 9.77734 2.88052 9.82417 2.79717 9.90752C2.71382 9.99087 2.66699 10.1039 2.66699 10.2218V11.9729Z" fill="#A9ADB2"/>
<path d="M14.8848 7.40922L13.387 5.91145C13.3205 5.84479 13.2415 5.79191 13.1546 5.75583C13.0677 5.71975 12.9744 5.70117 12.8803 5.70117C12.7862 5.70117 12.693 5.71975 12.606 5.75583C12.5191 5.79191 12.4401 5.84479 12.3737 5.91145L6.28032 12.0403L5.7781 14.1781C5.75929 14.2703 5.75887 14.3654 5.77685 14.4578C5.79483 14.5501 5.83087 14.6381 5.88289 14.7165C5.93491 14.795 6.00189 14.8624 6.08 14.9149C6.15811 14.9674 6.24582 15.004 6.3381 15.0226C6.38391 15.0272 6.43006 15.0272 6.47587 15.0226C6.53033 15.0314 6.58586 15.0314 6.64032 15.0226L8.79587 14.547L14.8848 8.44478C14.9513 8.37869 15.0041 8.30009 15.0401 8.21352C15.0761 8.12695 15.0947 8.0341 15.0947 7.94034C15.0947 7.84657 15.0761 7.75372 15.0401 7.66715C15.0041 7.58058 14.9513 7.50198 14.8848 7.43589V7.40922ZM8.34254 13.7381L6.71587 14.0981L7.11143 12.4848L11.6803 7.867L12.9337 9.12034L8.34254 13.7381ZM13.4359 8.61811L12.1825 7.36478L12.8892 6.667L14.1514 7.92922L13.4359 8.61811Z" fill="#A9ADB2"/>
</svg>
