<svg width="12" height="14" viewBox="0 0 12 14" fill="none" xmlns="http://www.w3.org/2000/svg">
<path d="M8.14592 0.145917C8.19236 0.0993539 8.24754 0.0624112 8.30828 0.0372047C8.36903 0.0119983 8.43415 -0.000976563 8.49992 -0.000976562C8.56568 -0.000976562 8.63081 0.0119983 8.69155 0.0372047C8.7523 0.0624112 8.80747 0.0993539 8.85392 0.145917L11.8539 3.14592C11.9005 3.19236 11.9374 3.24754 11.9626 3.30828C11.9878 3.36903 12.0008 3.43415 12.0008 3.49992C12.0008 3.56568 11.9878 3.63081 11.9626 3.69155C11.9374 3.7523 11.9005 3.80747 11.8539 3.85392L8.85392 6.85392C8.80743 6.9004 8.75224 6.93728 8.6915 6.96244C8.63076 6.9876 8.56566 7.00055 8.49992 7.00055C8.43417 7.00055 8.36907 6.9876 8.30833 6.96244C8.24759 6.93728 8.1924 6.9004 8.14592 6.85392C8.09943 6.80743 8.06255 6.75224 8.03739 6.6915C8.01223 6.63076 7.99929 6.56566 7.99929 6.49992C7.99929 6.43417 8.01223 6.36907 8.03739 6.30833C8.06255 6.24759 8.09943 6.1924 8.14592 6.14592L10.2929 3.99992H0.499917C0.367309 3.99992 0.240132 3.94724 0.146364 3.85347C0.0525958 3.7597 -8.27312e-05 3.63253 -8.27312e-05 3.49992C-8.27312e-05 3.36731 0.0525958 3.24013 0.146364 3.14636C0.240132 3.0526 0.367309 2.99992 0.499917 2.99992H10.2929L8.14592 0.853917C8.09935 0.807472 8.06241 0.752296 8.0372 0.691551C8.012 0.630806 7.99902 0.565685 7.99902 0.499917C7.99902 0.43415 8.012 0.369029 8.0372 0.308284C8.06241 0.247538 8.09935 0.192363 8.14592 0.145917ZM3.85392 7.14592C3.90048 7.19236 3.93742 7.24754 3.96263 7.30828C3.98784 7.36903 4.00081 7.43415 4.00081 7.49992C4.00081 7.56568 3.98784 7.63081 3.96263 7.69155C3.93742 7.7523 3.90048 7.80747 3.85392 7.85392L1.70692 9.99992H11.4999C11.6325 9.99992 11.7597 10.0526 11.8535 10.1464C11.9472 10.2401 11.9999 10.3673 11.9999 10.4999C11.9999 10.6325 11.9472 10.7597 11.8535 10.8535C11.7597 10.9472 11.6325 10.9999 11.4999 10.9999H1.70692L3.85392 13.1459C3.9478 13.2398 4.00055 13.3671 4.00055 13.4999C4.00055 13.6327 3.9478 13.76 3.85392 13.8539C3.76003 13.9478 3.63269 14.0005 3.49992 14.0005C3.36714 14.0005 3.2398 13.9478 3.14592 13.8539L0.145917 10.8539C0.0993539 10.8075 0.062411 10.7523 0.0372045 10.6916C0.0119981 10.6308 -0.000976562 10.5657 -0.000976562 10.4999C-0.000976562 10.4341 0.0119981 10.369 0.0372045 10.3083C0.062411 10.2475 0.0993539 10.1924 0.145917 10.1459L3.14592 7.14592C3.19236 7.09935 3.24754 7.06241 3.30828 7.0372C3.36903 7.012 3.43415 6.99902 3.49992 6.99902C3.56568 6.99902 3.63081 7.012 3.69155 7.0372C3.7523 7.06241 3.80747 7.09935 3.85392 7.14592Z" fill="#443F5F"/>
</svg>
