<svg width="24" height="24" viewBox="0 0 24 24" fill="none" xmlns="http://www.w3.org/2000/svg">
<path d="M20.8524 13.8411V12.2523C20.8522 12.1481 20.8251 12.0459 20.7735 11.9554L19.4071 9.55804L19.407 9.55737L18.0391 7.1654H18.0389C17.8461 6.8283 17.5678 6.54798 17.2322 6.35272C16.8964 6.15745 16.5152 6.05419 16.1269 6.05339H15.2524V4.25219C15.2523 4.09308 15.1891 3.94054 15.0766 3.82804C14.9641 3.71554 14.8115 3.65232 14.6524 3.65219H7.45244C6.44488 3.6534 5.47898 4.05412 4.76663 4.76648C4.05428 5.47883 3.65354 6.44473 3.65234 7.45228V13.8524L3.65489 13.8647V16.2535C3.65516 17.049 3.97136 17.8119 4.53387 18.3745C5.0965 18.937 5.85936 19.2532 6.65489 19.2535H6.93494C7.11132 19.8722 7.54927 20.383 8.13387 20.6518C8.71848 20.9206 9.39134 20.9206 9.97594 20.6518C10.5605 20.383 10.9985 19.8722 11.1749 19.2535H13.3349C13.5114 19.8722 13.9493 20.383 14.534 20.6518C15.1186 20.9206 15.7914 20.9206 16.376 20.6518C16.9605 20.383 17.3986 19.8722 17.575 19.2535H17.855C18.6501 19.2517 19.4122 18.9351 19.9744 18.3729C20.5366 17.8106 20.8533 17.0486 20.855 16.2535V13.8535L20.8524 13.8411ZM19.6524 13.2523H17.8524L17.8459 13.2497V13.2495C17.7408 13.244 17.6576 13.1586 17.655 13.0535V10.6535C17.6544 10.6001 17.6753 10.549 17.713 10.5114C17.7506 10.4737 17.8018 10.4528 17.8549 10.4534H18.5366L19.6524 12.4117L19.6524 13.2523ZM4.85226 7.45222C4.85306 6.76291 5.12735 6.10208 5.6147 5.61457C6.10208 5.1272 6.763 4.85305 7.45235 4.85226H14.0524V12.2522C14.0521 12.5173 13.9467 12.7715 13.7592 12.959C13.5717 13.1465 13.3175 13.2519 13.0523 13.2522H4.8522L4.85226 7.45222ZM9.05466 19.6535C8.7402 19.6523 8.44434 19.5043 8.25471 19.2534C8.12479 19.0803 8.05462 18.8697 8.05462 18.6534C8.05462 18.437 8.1248 18.2265 8.25471 18.0534C8.44354 17.8016 8.73992 17.6534 9.05466 17.6534C9.3694 17.6534 9.66577 17.8016 9.85462 18.0534C9.98453 18.2265 10.0547 18.437 10.0547 18.6534C10.0547 18.8697 9.98452 19.0803 9.85462 19.2534C9.66497 19.5043 9.36913 19.6523 9.05466 19.6535ZM15.4548 19.6535C15.1403 19.6523 14.8443 19.5043 14.6547 19.2534C14.5249 19.0803 14.4547 18.8697 14.4547 18.6534C14.4547 18.437 14.5249 18.2265 14.6547 18.0534C14.8435 17.8016 15.1399 17.6534 15.4548 17.6534C15.7695 17.6534 16.0659 17.8016 16.2547 18.0534C16.3845 18.2265 16.4547 18.437 16.4547 18.6534C16.4547 18.8697 16.3845 19.0803 16.2547 19.2534C16.0651 19.5043 15.7692 19.6523 15.4548 19.6535ZM19.6548 16.2534C19.654 16.7306 19.4642 17.188 19.1267 17.5254C18.7893 17.8629 18.332 18.0528 17.8548 18.0534H17.5747C17.3983 17.4347 16.9603 16.9239 16.3758 16.655C15.7912 16.3862 15.1183 16.3862 14.5337 16.655C13.9491 16.9239 13.5112 17.4347 13.3347 18.0534H11.1747C10.9983 17.4347 10.5603 16.9239 9.97571 16.655C9.39111 16.3862 8.71825 16.3862 8.13364 16.655C7.54904 16.9239 7.11111 17.4347 6.93471 18.0534H6.65466C6.17747 18.0528 5.7201 17.8629 5.38259 17.5254C5.04523 17.188 4.85531 16.7306 4.85466 16.2534V14.4534H13.0548C13.6379 14.4524 14.1969 14.2203 14.6093 13.8079C15.0216 13.3955 15.2538 12.8365 15.2547 12.2534V7.2535H16.1267C16.4858 7.25645 16.817 7.44783 16.9987 7.75747L17.8465 9.25291C17.5211 9.25558 17.207 9.37251 16.9592 9.58331C16.9272 9.60956 16.8925 9.63273 16.8628 9.66139C16.7914 9.73398 16.7285 9.8142 16.675 9.90072C16.5301 10.1246 16.4528 10.3856 16.4523 10.6523V13.0523C16.4531 13.3101 16.5254 13.5626 16.661 13.7818C16.7966 14.0012 16.9903 14.1787 17.2205 14.2945C17.4162 14.3975 17.6337 14.452 17.8548 14.4533H19.6548L19.6548 16.2534Z" fill="#443F5F"/>
</svg>
