<svg width="17" height="21" viewBox="0 0 17 21" fill="none" xmlns="http://www.w3.org/2000/svg">
<path d="M4.15789 0.84375H7.45148C7.8701 0.843809 8.27156 1.00027 8.5676 1.27875L15.5377 7.83664C15.8336 8.11517 15.9999 8.49289 16 8.88676V17.9279C16 18.5189 15.7505 19.0857 15.3063 19.5036C14.8621 19.9215 14.2597 20.1562 13.6316 20.1562H3.36842C2.74028 20.1562 2.13786 19.9215 1.69369 19.5036C1.24953 19.0857 1 18.5189 1 17.9279V4.0526" fill="#E8EFF6"/>
<path d="M4.15789 0.84375H7.45148C7.8701 0.843809 8.27156 1.00027 8.5676 1.27875L15.5377 7.83664C15.8336 8.11517 15.9999 8.49289 16 8.88676V17.9279C16 18.5189 15.7505 19.0857 15.3063 19.5036C14.8621 19.9215 14.2597 20.1563 13.6316 20.1563H3.36842C2.74028 20.1563 2.13786 19.9215 1.69369 19.5036C1.24953 19.0857 1 18.5189 1 17.9279V4.0526V4.00164C1 2.25759 2.41384 0.84375 4.15789 0.84375V0.84375Z" stroke="black" stroke-linecap="round" stroke-linejoin="round"/>
<path d="M8.10547 1.21484V6.78576C8.10547 7.17976 8.27182 7.55762 8.56794 7.83622C8.86405 8.11482 9.26567 8.27133 9.68443 8.27133H15.6056" fill="#E8EFF6"/>
<path d="M8.10547 1.21484V6.78576C8.10547 7.17976 8.27182 7.55762 8.56794 7.83622C8.86405 8.11482 9.26567 8.27133 9.68443 8.27133H15.6056" stroke="black" stroke-linecap="round" stroke-linejoin="round"/>
<path d="M8.21031 9.82161C8.12639 9.53187 7.92325 9.387 7.75101 9.4083C7.54343 9.43387 7.3226 9.55317 7.23427 9.74066C6.98694 10.2775 7.50367 11.8583 7.58317 12.1225C7.07971 13.5883 5.35728 16.4857 4.51374 16.6818C4.49608 16.49 4.60208 15.9361 5.71502 15.2458C5.77244 15.1862 5.83868 15.1137 5.86961 15.0668C4.9289 15.51 3.70995 16.2216 4.44309 16.7542C4.48283 16.784 4.54467 16.8096 4.61534 16.8352C5.17623 17.0354 5.96234 16.3792 6.7529 14.8922C7.62293 14.6152 8.32516 14.4064 9.31885 14.2615C10.4053 14.9731 11.134 15.118 11.6286 14.9348C11.7656 14.8836 11.982 14.7174 12.0438 14.5001C11.6419 14.9774 10.7012 14.645 9.95041 14.1891C10.6438 14.1166 11.3592 14.0741 11.6684 14.1678C12.0615 14.2871 12.0482 14.4746 12.0438 14.5001C12.0747 14.3979 12.1189 14.2317 12.035 14.0996C11.7037 13.5798 10.1845 13.8823 9.63242 13.9377C8.76237 13.4307 8.16172 12.5273 7.91883 11.8754C8.14406 11.036 8.38697 10.4267 8.21031 9.82161ZM7.83491 11.5814C7.68917 11.0829 7.48601 9.97502 7.81283 9.6171C8.45322 9.97076 8.05574 10.8102 7.83491 11.5814ZM9.03177 14.0527C8.19265 14.2019 7.62293 14.4106 6.80589 14.7217C7.0488 14.2658 7.5081 13.1025 7.72893 12.3356C8.03808 12.9321 8.41346 13.5158 9.03177 14.0527Z" fill="black"/>
</svg>
