<svg width="42" height="42" viewBox="0 0 42 42" fill="none" xmlns="http://www.w3.org/2000/svg">
<path d="M21.0003 41.8332C32.5063 41.8332 41.8337 32.5058 41.8337 20.9998C41.8337 17.2987 40.8685 13.8229 39.1762 10.8106C39.0171 10.5274 38.6326 10.4805 38.4029 10.7102L21.8633 27.2498C20.2361 28.877 17.5979 28.877 15.9707 27.2498L10.1522 21.4313C9.3386 20.6177 9.3386 19.2986 10.1522 18.485C10.9658 17.6714 12.2849 17.6714 13.0985 18.485L18.917 24.3036L35.9958 7.23674C36.1855 7.04721 36.1923 6.74135 36.0063 6.54825C32.2166 2.61407 26.8943 0.166504 21.0003 0.166504C9.49439 0.166504 0.166992 9.49391 0.166992 20.9998C0.166992 32.5058 9.49439 41.8332 21.0003 41.8332Z" fill="#443F5F"/>
</svg>
