<svg width="15" height="15" viewBox="0 0 15 15" fill="none" xmlns="http://www.w3.org/2000/svg">
<path d="M14.3773 8.53421V7.21021C14.3772 7.12338 14.3545 7.03822 14.3116 6.96277L13.1729 4.965L13.1728 4.96444L12.0329 2.97113H12.0328C11.8721 2.69021 11.6401 2.45661 11.3605 2.2939C11.0807 2.13118 10.763 2.04513 10.4394 2.04446H9.71069V0.543454C9.71058 0.410866 9.6579 0.283746 9.56415 0.189997C9.4704 0.0962484 9.34328 0.0435685 9.21069 0.043457H3.21069C2.37106 0.0444615 1.56615 0.3784 0.972517 0.972029C0.378888 1.56566 0.0449453 2.37057 0.0439453 3.2102V8.54363L0.0460658 8.5539V10.5445C0.0462891 11.2075 0.309795 11.8432 0.778552 12.312C1.24741 12.7808 1.88312 13.0443 2.54607 13.0445H2.77944C2.92642 13.5602 3.29138 13.9858 3.77855 14.2098C4.26572 14.4338 4.82644 14.4338 5.31361 14.2098C5.80078 13.9858 6.16573 13.5602 6.31273 13.0445H8.11273C8.25982 13.5602 8.62478 13.9858 9.11195 14.2098C9.59913 14.4338 10.1598 14.4338 10.647 14.2098C11.1341 13.9858 11.4991 13.5602 11.6461 13.0445H11.8795C12.5421 13.0431 13.1772 12.7792 13.6457 12.3107C14.1142 11.8422 14.378 11.2071 14.3795 10.5445V8.54453L14.3773 8.53421ZM13.3773 8.04358H11.8773L11.8719 8.04135V8.04124C11.7843 8.03666 11.715 7.96546 11.7128 7.87784V5.87784C11.7124 5.83342 11.7298 5.79079 11.7611 5.75943C11.7925 5.72806 11.8351 5.71065 11.8794 5.7111H12.4475L13.3773 7.34301L13.3773 8.04358ZM1.04387 3.21015C1.04454 2.63572 1.27311 2.08503 1.67925 1.67878C2.08539 1.27263 2.63616 1.04418 3.21062 1.04352H8.71062V7.21009C8.7104 7.43108 8.62256 7.64289 8.46631 7.79915C8.31006 7.95541 8.09823 8.04324 7.87725 8.04346H1.04382L1.04387 3.21015ZM4.54588 13.3779C4.28382 13.3769 4.03728 13.2535 3.87925 13.0445C3.77099 12.9002 3.71251 12.7248 3.71251 12.5445C3.71251 12.3641 3.77099 12.1887 3.87925 12.0445C4.03661 11.8347 4.28359 11.7111 4.54588 11.7111C4.80816 11.7111 5.05513 11.8347 5.21251 12.0445C5.32077 12.1887 5.37924 12.3642 5.37924 12.5445C5.37924 12.7247 5.32076 12.9002 5.21251 13.0445C5.05447 13.2535 4.80793 13.3769 4.54588 13.3779ZM9.87931 13.3779C9.61725 13.3769 9.37059 13.2535 9.21256 13.0445C9.10441 12.9002 9.04593 12.7248 9.04593 12.5445C9.04593 12.3641 9.10442 12.1887 9.21256 12.0445C9.36993 11.8347 9.61691 11.7111 9.87931 11.7111C10.1416 11.7111 10.3886 11.8347 10.5459 12.0445C10.6541 12.1887 10.7126 12.3642 10.7126 12.5445C10.7126 12.7247 10.6541 12.9002 10.5459 13.0445C10.3879 13.2535 10.1414 13.3769 9.87931 13.3779ZM13.3793 10.5445C13.3786 10.9422 13.2205 11.3233 12.9393 11.6044C12.6581 11.8857 12.277 12.044 11.8793 12.0445H11.6459C11.499 11.5289 11.1339 11.1032 10.6468 10.8791C10.1596 10.6551 9.59894 10.6551 9.11176 10.8791C8.62459 11.1032 8.25965 11.5289 8.11253 12.0445H6.31253C6.16555 11.5289 5.80059 11.1032 5.31342 10.8791C4.82625 10.6551 4.26553 10.6551 3.77836 10.8791C3.29119 11.1032 2.92625 11.5289 2.77925 12.0445H2.54588C2.14822 12.0439 1.76708 11.8857 1.48582 11.6044C1.20468 11.3233 1.04642 10.9422 1.04587 10.5445V9.04449H7.87931C8.36525 9.0436 8.83108 8.85018 9.17473 8.50655C9.51836 8.16292 9.71179 7.69706 9.71256 7.21112V3.04455H10.4392C10.7385 3.047 11.0145 3.20649 11.1659 3.46452L11.8724 4.71072C11.6012 4.71295 11.3395 4.81039 11.133 4.98605C11.1063 5.00793 11.0774 5.02724 11.0527 5.05112C10.9932 5.11161 10.9407 5.17846 10.8962 5.25056C10.7754 5.43717 10.711 5.65459 10.7106 5.87691V7.87691C10.7113 8.09175 10.7715 8.30214 10.8845 8.48482C10.9975 8.66763 11.1589 8.81551 11.3508 8.91205C11.5138 8.99788 11.6951 9.0433 11.8793 9.04442H13.3793L13.3793 10.5445Z" fill="#443F5F"/>
</svg>
