<svg width="24" height="25" viewBox="0 0 24 25" fill="none" xmlns="http://www.w3.org/2000/svg">
<path d="M12.0001 2.60059C12.823 2.60051 13.6145 2.91602 14.2117 3.48211C14.8089 4.0482 15.1663 4.82176 15.2101 5.64344L15.2144 5.81487H19.9287C20.0916 5.81492 20.2484 5.8768 20.3674 5.98799C20.4864 6.09919 20.5588 6.25141 20.5699 6.41391C20.581 6.57641 20.53 6.73706 20.4272 6.86341C20.3244 6.98976 20.1775 7.07238 20.0161 7.09459L19.9287 7.10059H19.021L17.9753 20.0032C17.91 20.8081 17.5442 21.5589 16.9505 22.1064C16.3568 22.6539 15.5788 22.9578 14.7713 22.9577H9.229C8.42143 22.9578 7.64344 22.6539 7.04977 22.1064C6.4561 21.5589 6.09025 20.8081 6.025 20.0032L4.97843 7.10059H4.07157C3.91622 7.10058 3.76613 7.04432 3.64906 6.94221C3.53198 6.84011 3.45584 6.69906 3.43471 6.54516L3.42871 6.45773C3.42872 6.30238 3.48498 6.15229 3.58708 6.03522C3.68919 5.91814 3.83024 5.842 3.98414 5.82087L4.07157 5.81487H8.78585C8.78585 4.96239 9.1245 4.14482 9.7273 3.54203C10.3301 2.93923 11.1477 2.60059 12.0001 2.60059ZM17.7319 7.10059H6.26843L7.30643 19.8994C7.34562 20.3824 7.56517 20.8329 7.92141 21.1613C8.27764 21.4898 8.74446 21.6721 9.229 21.672H14.7713C15.2558 21.6721 15.7226 21.4898 16.0789 21.1613C16.4351 20.8329 16.6547 20.3824 16.6939 19.8994L17.731 7.10059H17.7319ZM10.0716 10.3149C10.2269 10.3149 10.377 10.3711 10.4941 10.4732C10.6112 10.5753 10.6873 10.7164 10.7084 10.8703L10.7144 10.9577V17.8149C10.7144 17.9777 10.6525 18.1345 10.5413 18.2535C10.4301 18.3726 10.2779 18.4449 10.1154 18.456C9.95289 18.4671 9.79223 18.4161 9.66588 18.3134C9.53953 18.2106 9.45691 18.0637 9.43471 17.9023L9.42871 17.8149V10.9577C9.42871 10.7872 9.49644 10.6237 9.617 10.5032C9.73756 10.3826 9.90107 10.3149 10.0716 10.3149ZM13.9287 10.3149C14.0841 10.3149 14.2341 10.3711 14.3512 10.4732C14.4683 10.5753 14.5444 10.7164 14.5656 10.8703L14.5716 10.9577V17.8149C14.5715 17.9777 14.5096 18.1345 14.3984 18.2535C14.2873 18.3726 14.135 18.4449 13.9725 18.456C13.81 18.4671 13.6494 18.4161 13.523 18.3134C13.3967 18.2106 13.3141 18.0637 13.2919 17.9023L13.2859 17.8149V10.9577C13.2859 10.7872 13.3536 10.6237 13.4741 10.5032C13.5947 10.3826 13.7582 10.3149 13.9287 10.3149ZM12.0001 3.8863C11.5115 3.88624 11.041 4.0717 10.6838 4.40519C10.3266 4.73868 10.1093 5.19534 10.0759 5.68287L10.0716 5.81487H13.9287L13.9244 5.68287C13.891 5.19534 13.6737 4.73868 13.3165 4.40519C12.9593 4.0717 12.4888 3.88624 12.0001 3.8863Z" fill="#FC0505"/>
</svg>
